<svg id="Calque_1" data-name="Calque 1" xmlns="http://www.w3.org/2000/svg" viewBox="0 0 508 215"><defs><style>.cls-1{fill:#aaa;}.cls-2{fill:#ea3207;}</style></defs><title>nruub</title><path class="cls-1" d="M338.61,203.05V179.28a68.3,68.3,0,0,0,29.64-14.83c11.52-9.79,18.15-22.31,19.16-37.25.94-13.82.82-27.73.89-41.6.12-23.47,0-46.95,0-70.43V12h24.85V53.84c7.72-5.69,16.09-7.55,25-7.81,15-.44,26.78,5.84,36.11,17.17C491.05,83.62,490,116,471.71,134.25c-12.61,12.6-28,15.72-45.08,12.25-5.78-1.18-10.39-4.51-14.29-9.69-4.75,17.52-13.43,32.23-26.84,44S356.41,199.57,338.61,203.05Zm97.56-77.87a33,33,0,0,0,4.56-.4A28.33,28.33,0,0,0,460.87,86.4c-9.17-21.87-33-21-43.12-9.51A31.49,31.49,0,0,0,414,112.23C418.63,120.67,425.8,125.12,436.17,125.18Z"/><path class="cls-1" d="M296.35,47.3h24.27V51c.06,18.06-.09,36.13.27,54.18.15,8,3.88,14.42,11.32,17.87s14.93,2.89,21.58-2.24A18.47,18.47,0,0,0,361.17,106c.23-18.37.19-36.73.26-55.1v-3.5h23.49c.06.68.19,1.36.19,2,0,18.37.31,36.74-.09,55.1-.39,17.61-8.37,31.22-24.29,39.11-23.12,11.45-55.18,1.82-62.84-28.61a53.14,53.14,0,0,1-1.46-12.39c-.16-17.76-.08-35.51-.08-53.27Z"/><path class="cls-1" d="M197.78,47.25h24c0,1.23,0,2.4,0,3.58.12,18,0,35.92.46,53.87.29,11.93,8.34,19.62,19.93,20,11,.32,19.08-6.93,20.47-18.43a73.57,73.57,0,0,0,.56-8.52c.05-15.62,0-31.23,0-46.84V47.37h23.69v3q0,24.64,0,49.29c0,11.12-1.87,21.77-8.78,30.84-10.3,13.54-24.17,18.94-41,17.37-20-1.87-33.72-15.72-37.88-32.9a48.18,48.18,0,0,1-1.51-10.86c-.16-18.36-.08-36.73-.08-55.1C197.68,48.53,197.73,48,197.78,47.25Z"/><path class="cls-1" d="M115.11,145.75H91.61v-3.11c0-15,.16-30-.09-45a54.9,54.9,0,0,0-2-14.74C86.69,73.6,78.82,68.56,68.94,68.77c-10.32.22-18.49,6-21.19,15.74A56.69,56.69,0,0,0,46,98.69c-.21,14.39-.06,28.78-.06,43.18v3.84H22.08c-.07-.72-.2-1.49-.2-2.27,0-16-.1-32,0-48.08.08-11.64,2.64-22.65,9.62-32.22,9.17-12.57,22-17.52,37.16-17.36,16.72.18,30.42,6.07,39.4,20.76a47.86,47.86,0,0,1,7.14,25.24q.06,26.34,0,52.67C115.23,144.84,115.16,145.23,115.11,145.75Z"/><path class="cls-1" d="M188.38,47.28V70.49c-5.29,0-10.57-.1-15.84,0-11.67.25-20,7.66-20.72,19.28-.67,10.78-.53,21.61-.66,32.42-.08,7.75,0,15.5,0,23.47H128a21.94,21.94,0,0,1-.2-2.24c0-17.56-.07-35.12,0-52.67C127.94,71,142.24,53,161.46,48.24a26,26,0,0,1,5.72-.92C174.19,47.21,181.21,47.28,188.38,47.28Z"/><path class="cls-2" d="M436.26,120c-8.45,0-14.29-3.67-18.09-10.54a25.68,25.68,0,0,1,3.08-28.79c8.23-9.31,27.65-10.06,35.12,7.75A23.07,23.07,0,0,1,440,119.63,27.24,27.24,0,0,1,436.26,120Z"/></svg>